<svg width="390" height="426" viewBox="0 0 390 426" fill="none" xmlns="http://www.w3.org/2000/svg">
<path d="M56.6049 103.992L56.1808 102.918C54.2402 97.9258 53.1423 93.7777 52.887 90.4739C52.6593 87.1593 53.0453 84.2704 54.0449 81.8073C55.0336 79.3166 56.4537 76.8305 58.3052 74.349C59.5709 72.6399 60.6196 70.905 61.4513 69.1446C62.2998 67.3457 62.8048 65.5234 62.9665 63.6777C63.1174 61.8045 62.8122 59.9045 62.051 57.9779C61.192 55.8037 59.938 54.1195 58.289 52.9255C56.64 51.7315 54.7745 51.0367 52.6926 50.841C50.6383 50.6345 48.5515 50.9498 46.4322 51.7871C44.4781 52.5591 42.7889 53.7197 41.3645 55.2688C39.9568 56.7796 39.0121 58.6165 38.5303 60.7796C38.0651 62.9043 38.2748 65.2874 39.1594 67.9289L24.4623 73.7354C22.5339 68.4518 22.071 63.5755 23.0736 59.1066C24.1038 54.6268 26.2525 50.7233 29.5199 47.396C32.8147 44.0579 36.8704 41.4373 41.6869 39.5344C46.9437 37.4576 51.9318 36.5528 56.6511 36.8201C61.3979 37.0766 65.5602 38.4708 69.1379 41.0029C72.7322 43.4965 75.4482 47.069 77.2859 51.7203C78.5255 54.8579 79.1254 57.8664 79.0857 60.7457C79.0735 63.6142 78.526 66.376 77.4431 69.0312C76.3603 71.6863 74.8518 74.2709 72.9178 76.785C71.2322 79.0419 69.9673 81.1962 69.1233 83.2479C68.3069 85.2887 67.9515 87.4495 68.0572 89.7305C68.1796 91.9731 68.8033 94.5586 69.9284 97.4869L70.3525 98.5602L56.6049 103.992ZM73.9661 126.915C71.4891 127.893 69.0081 127.855 66.5232 126.801C64.0383 125.746 62.2957 123.953 61.2953 121.421C60.3167 118.944 60.3739 116.471 61.4669 114.003C62.56 111.535 64.345 109.811 66.8221 108.832C69.2716 107.865 71.7388 107.908 74.2237 108.963C76.7361 110.007 78.4816 111.767 79.4602 114.244C80.1235 115.923 80.3004 117.619 79.9909 119.332C79.7089 121.035 79.043 122.57 77.993 123.94C76.9598 125.271 75.6175 126.262 73.9661 126.915Z" fill="#A2A2A2"/>
<path d="M82 156.5L59 420.5H320.5L294.5 156.5H82Z" stroke="#A2A2A2" stroke-width="10"/>
<path d="M127.004 127.267V156C127.004 145 251.004 146 251.004 156V126.763C251.004 116.749 248.439 106.911 243.554 98.1692C236.145 84.9099 223.879 75.0435 209.339 70.648L206.469 69.7803C195.083 66.3379 182.931 66.3577 171.556 69.8371L168.899 70.6498C154.511 75.0507 142.338 84.7635 134.853 97.8152C129.71 106.782 127.004 116.93 127.004 127.267Z" stroke="#A2A2A2" stroke-width="10"/>
<circle cx="20.5" cy="254.5" r="10" stroke="#A2A2A2" stroke-width="5"/>
<circle cx="345" cy="299" r="7.5" stroke="#A2A2A2" stroke-width="5"/>
<line x1="363.574" y1="217.278" x2="348.725" y2="202.429" stroke="#A2A2A2" stroke-width="2"/>
<line x1="348.723" y1="216.571" x2="363.572" y2="201.722" stroke="#A2A2A2" stroke-width="2"/>
<line x1="34.9218" y1="349.627" x2="20.0726" y2="334.778" stroke="#A2A2A2" stroke-width="2"/>
<line x1="20.0702" y1="348.92" x2="34.9195" y2="334.071" stroke="#A2A2A2" stroke-width="2"/>
<line x1="378.348" y1="398.349" x2="378.348" y2="377.349" stroke="#A2A2A2" stroke-width="2"/>
<line x1="368.348" y1="387.349" x2="389.348" y2="387.349" stroke="#A2A2A2" stroke-width="2"/>
<line x1="25" y1="179" x2="25" y2="158" stroke="#A2A2A2" stroke-width="2"/>
<line x1="15" y1="168" x2="36" y2="168" stroke="#A2A2A2" stroke-width="2"/>
<circle cx="133" cy="230" r="10" fill="#A2A2A2"/>
<circle cx="247" cy="230" r="10" fill="#A2A2A2"/>
<path d="M167 288.5V288.5C169.776 261.418 209.224 261.418 212 288.5V288.5" stroke="#A2A2A2" stroke-width="10"/>
</svg>
